Coordinates
version=1
nRows=12
nColumns=33
inDegrees=yes

Units are S.I. units (second, meters, Newtons, ...)
Angles are in degrees.

endheader
time	ground_thorax_rot_x	ground_thorax_rot_y	ground_thorax_rot_z	ground_thorax_tx	ground_thorax_ty	ground_thorax_tz	clav_prot_r	clav_elev_r	scapula_abduction_r	scapula_elevation_r	scapula_upward_rot_r	scapula_winging_r	shoulder_elv_r	plane_of_elev_r	axial_rot_r	elbow_flexion_r	pro_sup_r	wrist_flex_r	wrist_dev_r	clav_prot_l	clav_elev_l	scapula_abduction_l	scapula_elevation_l	scapula_upward_rot_l	scapula_winging_l	shoulder_elv_l	plane_of_elev_l	axial_rot_l	elbow_flexion_l	pro_sup_l	wrist_flex_l	wrist_dev_l
      9.27000000	     30.62777689	     25.32861454	     35.92458790	    -74.20710397	    845.92978293	    -49.34704496	     12.40344152	     33.68358368	     26.13292437	     45.00000000	    -45.00000000	    632.93000234	   1512.79132738	     24.00738935	    179.99999979	   3600.42835793	   -182.34116390	     18.75940622	     13.85336515	     -6.99490169	    -45.00000000	    -39.12744946	     45.00000000	    -45.00000000	   5504.46263123	  -4047.52632420	    132.72874110	   -118.93980519	   2870.86730911	     40.90873303	     15.44296381	    -21.14455572
      9.28000000	     30.49346931	     25.47133362	     36.24295876	    -71.78886333	    845.53606552	    -49.32167933	     12.45599819	     33.72430169	     26.33529220	     45.00000000	    -45.00000000	    632.91734460	   1512.71889602	     24.05301247	    179.99999979	   3600.29642460	   -183.33390634	     18.59429885	     14.02408437	     -6.97247623	    -45.00000000	    -39.14186629	     45.00000000	    -45.00000000	   5504.34181109	  -4047.49054558	    132.61405125	   -118.51049617	   2870.94006475	     41.17480769	     15.44936350	    -21.16743014
      9.29000000	     30.34832654	     25.58482209	     36.58430192	    -69.27742006	    845.11488433	    -49.30116560	     12.48368679	     33.74479441	     26.55169589	     45.00000000	    -45.00000000	    632.96119402	   1512.64614575	     24.08330860	    179.99999979	   3600.13847018	   -184.30981124	     18.42060359	     14.20203622	     -6.93715884	    -45.00000000	    -39.14973690	     45.00000000	    -45.00000000	   5504.19208444	  -4047.42153248	    132.55636413	   -118.05701653	   2870.98055933	     41.46367098	     15.44174468	    -21.14959268
      9.30000000	     30.24606233	     25.68234373	     36.88691935	    -66.67746410	    844.66742977	    -49.28576345	     12.61030414	     33.79449921	     26.82205119	     45.00000000	    -45.00000000	    632.96663880	   1512.55757647	     24.14611107	    179.99999979	   3599.98897628	   -185.27983137	     18.22809888	     14.37366104	     -6.99126060	    -45.00000000	    -39.12276036	     45.00000000	    -45.00000000	   5504.02634608	  -4047.34597157	    132.48567356	   -117.56327409	   2871.02252077	     41.77859399	     15.43335598	    -21.12275383
      9.31000000	     30.11081210	     25.84251911	     37.19916666	    -63.99209321	    844.19400047	    -49.27370758	     12.56176212	     33.78940992	     26.95487678	     45.00000000	    -45.00000000	    633.03272912	   1512.49409958	     24.21071704	    179.99999979	   3599.81489796	   -186.16213239	     18.03282054	     14.53179833	     -6.86705446	    -45.00000000	    -39.13328883	     45.00000000	    -45.00000000	   5503.90444109	  -4047.32422193	    132.37273393	   -117.14968781	   2871.09892713	     42.08951500	     15.43416011	    -21.09522050
      9.32000000	     30.01722415	     26.00368261	     37.49285553	    -61.22512698	    843.69457174	    -49.26061120	     12.53807217	     33.77720075	     27.18192197	     45.00000000	    -45.00000000	    633.07499135	   1512.46682276	     24.22634350	    179.99999979	   3599.67942821	   -187.00121986	     17.81542724	     14.68450553	     -6.81073956	    -45.00000000	    -39.17151101	     45.00000000	    -45.00000000	   5503.74983992	  -4047.31380394	    132.23292021	   -116.74548193	   2871.12248901	     42.42649929	     15.44591779	    -21.03848748
      9.33000000	     29.90676620	     26.11854939	     37.83803253	    -58.37560365	    843.16761021	    -49.24044571	     12.87889024	     33.89858676	     27.57300605	     45.00000000	    -45.00000000	    633.07821494	   1512.29570814	     24.21166594	    179.99999979	   3599.53523303	   -187.89247648	     17.58316207	     14.84598805	     -7.12482951	    -45.00000000	    -39.06288518	     45.00000000	    -45.00000000	   5503.49705942	  -4047.18706222	    132.27048551	   -116.10087953	   2871.18570172	     42.81079550	     15.39683092	    -20.95185392
      9.34000000	     29.80931664	     26.29998443	     38.14812795	    -55.45202939	    842.61385836	    -49.20726523	     12.72836285	     33.88147830	     27.74622585	     45.00000000	    -45.00000000	    633.11734766	   1512.26512588	     24.30338182	    179.99999979	   3599.39769656	   -188.61877723	     17.34640043	     14.98021698	     -6.89348916	    -45.00000000	    -39.11916462	     45.00000000	    -45.00000000	   5503.40518877	  -4047.20584211	    132.09982895	   -115.77758884	   2871.18385020	     43.16902054	     15.42755885	    -20.87832317
      9.35000000	     29.67420180	     26.51523527	     38.52578381	    -52.45237556	    842.03072589	    -49.15642362	     12.87544422	     33.94977072	     27.99780026	     45.00000000	    -45.00000000	    633.16661599	   1512.15915505	     24.27843570	    179.99999979	   3599.27882309	   -189.29381250	     17.10031293	     15.09985091	     -7.03611786	    -45.00000000	    -39.06839673	     45.00000000	    -45.00000000	   5503.17493791	  -4047.14997027	    132.08274020	   -115.25786031	   2871.21925318	     43.52547428	     15.40377336	    -20.75941593
      9.36000000	     29.58320160	     26.67991659	     38.82452500	    -49.37803398	    841.41651661	    -49.08551700	     13.09665645	     34.02213829	     28.31530657	     45.00000000	    -45.00000000	    633.23003020	   1512.03509796	     24.25913928	    179.99999979	   3599.15625857	   -189.91859208	     16.83160463	     15.25384488	     -7.26910568	    -45.00000000	    -39.01271451	     45.00000000	    -45.00000000	   5502.92241341	  -4047.07140702	    132.06576898	   -114.72871463	   2871.23525603	     43.90235948	     15.36775059	    -20.60795338
      9.37000000	     29.47631501	     26.87823565	     39.18127041	    -46.23313976	    840.76961505	    -48.99437548	     13.05900504	     34.07322553	     28.47890398	     45.00000000	    -45.00000000	    633.26752614	   1511.99167042	     24.37976441	    179.99999979	   3599.01162967	   -190.39847492	     16.58857859	     15.34373042	     -7.15250359	    -45.00000000	    -38.97745557	     45.00000000	    -45.00000000	   5502.79764890	  -4047.09658668	    131.97416040	   -114.39303309	   2871.21974641	     44.24156296	     15.38288321	    -20.48524581
      9.38000000	     29.33961954	     27.11972633	     39.57445400	    -43.02303549	    840.08931711	    -48.88362115	     13.12012198	     34.13481700	     28.70450473	     45.00000000	    -45.00000000	    633.33623663	   1511.91615099	     24.38377788	    179.99999979	   3598.93368635	   -190.73958958	     16.32808014	     15.41747003	     -7.22666586	    -45.00000000	    -38.94956649	     45.00000000	    -45.00000000	   5502.60539338	  -4047.08197939	    131.93653016	   -113.99713860	   2871.21261788	     44.56234413	     15.36841727	    -20.31875203
